{
    "asset" : {
        "generator" : "Khronos glTF Blender I/O v3.3.32",
        "version" : "2.0"
    },
    "extensionsUsed" : [
        "KHR_materials_transmission",
        "KHR_materials_specular",
        "KHR_materials_ior"
    ],
    "scene" : 0,
    "scenes" : [
        {
            "name" : "Scene",
            "nodes" : [
                0,
                1
            ]
        }
    ],
    "nodes" : [
        {
            "mesh" : 0,
            "name" : "Glass_cube",
            "rotation" : [
                -0.242872953414917,
                0.5098391175270081,
                -0.34593045711517334,
                0.7492722868919373
            ],
            "scale" : [
                0.5,
                0.5,
                0.5
            ]
        },
        {
            "mesh" : 1,
            "name" : "Japanese_coin",
            "rotation" : [
                -0.7790598273277283,
                -0.2531319260597229,
                0.5455036163330078,
                0.17724491655826569
            ],
            "scale" : [
                2.000000238418579,
                2,
                2
            ]
        }
    ],
    "animations" : [
        {
            "channels" : [
                {
                    "sampler" : 0,
                    "target" : {
                        "node" : 0,
                        "path" : "rotation"
                    }
                },
                {
                    "sampler" : 1,
                    "target" : {
                        "node" : 0,
                        "path" : "translation"
                    }
                }
            ],
            "name" : "Glass_cubeAction",
            "samplers" : [
                {
                    "input" : 10,
                    "interpolation" : "LINEAR",
                    "output" : 11
                },
                {
                    "input" : 12,
                    "interpolation" : "LINEAR",
                    "output" : 13
                }
            ]
        },
        {
            "channels" : [
                {
                    "sampler" : 0,
                    "target" : {
                        "node" : 1,
                        "path" : "rotation"
                    }
                }
            ],
            "name" : "Japanese_coinAction",
            "samplers" : [
                {
                    "input" : 14,
                    "interpolation" : "LINEAR",
                    "output" : 15
                }
            ]
        }
    ],
    "materials" : [
        {
            "doubleSided" : true,
            "name" : "Pulegoso Bottle Glass 01",
            "pbrMetallicRoughness" : {}
        },
        {
            "alphaMode" : "BLEND",
            "doubleSided" : true,
            "extensions" : {
                "KHR_materials_transmission" : {
                    "transmissionFactor" : 0.9700000286102295
                },
                "KHR_materials_specular" : {
                    "specularColorFactor" : [
                        0.984202280271701,
                        0.984202280271701,
                        0.984202280271701
                    ]
                },
                "KHR_materials_ior" : {
                    "ior" : 1.899999976158142
                }
            },
            "name" : "Violet Glass",
            "pbrMetallicRoughness" : {
                "baseColorFactor" : [
                    1,
                    1,
                    1,
                    0.9599999785423279
                ],
                "metallicFactor" : 0
            }
        }
    ],
    "meshes" : [
        {
            "name" : "Cube.004",
            "primitives" : [
                {
                    "attributes" : {
                        "POSITION" : 0,
                        "NORMAL" : 1,
                        "TEXCOORD_0" : 2,
                        "TEXCOORD_1" : 3
                    },
                    "indices" : 4,
                    "material" : 0
                }
            ]
        },
        {
            "name" : "Cylinder.017",
            "primitives" : [
                {
                    "attributes" : {
                        "POSITION" : 5,
                        "NORMAL" : 6,
                        "TEXCOORD_0" : 7,
                        "TEXCOORD_1" : 8
                    },
                    "indices" : 9,
                    "material" : 1
                }
            ]
        }
    ],
    "accessors" : [
        {
            "bufferView" : 0,
            "componentType" : 5126,
            "count" : 2627,
            "max" : [
                0.9999904632568359,
                1.0000066757202148,
                0.9999986290931702
            ],
            "min" : [
                -1.000009536743164,
                -0.9999933242797852,
                -1.0000014305114746
            ],
            "type" : "VEC3"
        },
        {
            "bufferView" : 1,
            "componentType" : 5126,
            "count" : 2627,
            "type" : "VEC3"
        },
        {
            "bufferView" : 2,
            "componentType" : 5126,
            "count" : 2627,
            "type" : "VEC2"
        },
        {
            "bufferView" : 3,
            "componentType" : 5126,
            "count" : 2627,
            "type" : "VEC2"
        },
        {
            "bufferView" : 4,
            "componentType" : 5123,
            "count" : 11904,
            "type" : "SCALAR"
        },
        {
            "bufferView" : 5,
            "componentType" : 5126,
            "count" : 524,
            "max" : [
                0.9983091354370117,
                0.10072177648544312,
                0.9932403564453125
            ],
            "min" : [
                -0.9983072280883789,
                -0.1007227897644043,
                -0.9999961853027344
            ],
            "type" : "VEC3"
        },
        {
            "bufferView" : 6,
            "componentType" : 5126,
            "count" : 524,
            "type" : "VEC3"
        },
        {
            "bufferView" : 7,
            "componentType" : 5126,
            "count" : 524,
            "type" : "VEC2"
        },
        {
            "bufferView" : 8,
            "componentType" : 5126,
            "count" : 524,
            "type" : "VEC2"
        },
        {
            "bufferView" : 9,
            "componentType" : 5123,
            "count" : 1344,
            "type" : "SCALAR"
        },
        {
            "bufferView" : 10,
            "componentType" : 5126,
            "count" : 181,
            "max" : [
                3
            ],
            "min" : [
                0
            ],
            "type" : "SCALAR"
        },
        {
            "bufferView" : 11,
            "componentType" : 5126,
            "count" : 181,
            "type" : "VEC4"
        },
        {
            "bufferView" : 12,
            "componentType" : 5126,
            "count" : 182,
            "max" : [
                3.0166666666666666
            ],
            "min" : [
                0
            ],
            "type" : "SCALAR"
        },
        {
            "bufferView" : 13,
            "componentType" : 5126,
            "count" : 182,
            "type" : "VEC3"
        },
        {
            "bufferView" : 14,
            "componentType" : 5126,
            "count" : 180,
            "max" : [
                3
            ],
            "min" : [
                0.016666666666666666
            ],
            "type" : "SCALAR"
        },
        {
            "bufferView" : 15,
            "componentType" : 5126,
            "count" : 180,
            "type" : "VEC4"
        }
    ],
    "bufferViews" : [
        {
            "buffer" : 0,
            "byteLength" : 31524,
            "byteOffset" : 0,
            "target" : 34962
        },
        {
            "buffer" : 0,
            "byteLength" : 31524,
            "byteOffset" : 31524,
            "target" : 34962
        },
        {
            "buffer" : 0,
            "byteLength" : 21016,
            "byteOffset" : 63048,
            "target" : 34962
        },
        {
            "buffer" : 0,
            "byteLength" : 21016,
            "byteOffset" : 84064,
            "target" : 34962
        },
        {
            "buffer" : 0,
            "byteLength" : 23808,
            "byteOffset" : 105080,
            "target" : 34963
        },
        {
            "buffer" : 0,
            "byteLength" : 6288,
            "byteOffset" : 128888,
            "target" : 34962
        },
        {
            "buffer" : 0,
            "byteLength" : 6288,
            "byteOffset" : 135176,
            "target" : 34962
        },
        {
            "buffer" : 0,
            "byteLength" : 4192,
            "byteOffset" : 141464,
            "target" : 34962
        },
        {
            "buffer" : 0,
            "byteLength" : 4192,
            "byteOffset" : 145656,
            "target" : 34962
        },
        {
            "buffer" : 0,
            "byteLength" : 2688,
            "byteOffset" : 149848,
            "target" : 34963
        },
        {
            "buffer" : 0,
            "byteLength" : 724,
            "byteOffset" : 152536
        },
        {
            "buffer" : 0,
            "byteLength" : 2896,
            "byteOffset" : 153260
        },
        {
            "buffer" : 0,
            "byteLength" : 728,
            "byteOffset" : 156156
        },
        {
            "buffer" : 0,
            "byteLength" : 2184,
            "byteOffset" : 156884
        },
        {
            "buffer" : 0,
            "byteLength" : 720,
            "byteOffset" : 159068
        },
        {
            "buffer" : 0,
            "byteLength" : 2880,
            "byteOffset" : 159788
        }
    ],
    "buffers" : [
        {
            "byteLength" : 162668,
            "uri" : "data:application/octet-stream;base64,"
        }
    ]
}
